<?xml version="1.0" encoding="UTF-8" standalone="no"?>
<!DOCTYPE svg PUBLIC "-//W3C//DTD SVG 1.1//EN" "http://www.w3.org/Graphics/SVG/1.1/DTD/svg11.dtd">
<svg xmlns="http://www.w3.org/2000/svg" version="1.1" viewBox="0.00 0.00 1024.00 1024.00">
<g stroke-width="2.00" fill="none" stroke-linecap="butt">
<path stroke="#8a9499" vector-effect="non-scaling-stroke" d="
  M 866.66 667.75
  Q 882.75 629.22 890.46 586.24
  Q 905.55 502.06 882.50 420.51
  C 871.34 381.03 853.93 343.20 830.60 309.67
  C 803.34 270.49 770.79 236.83 733.04 210.53
  Q 690.93 181.20 645.75 163.87
  C 595.47 144.59 540.32 135.47 486.82 140.34
  Q 427.94 145.70 373.79 168.13
  C 340.79 181.80 307.83 200.59 279.39 222.79
  C 259.50 238.32 240.47 256.96 225.49 274.55
  Q 209.13 293.76 195.37 314.22
  Q 153.61 376.32 139.48 450.80
  C 128.60 508.13 130.73 566.57 146.56 622.96
  Q 154.01 649.50 164.25 673.10
  Q 181.54 712.95 208.74 748.10
  Q 250.33 801.83 302.19 835.95
  C 325.08 851.01 349.59 863.59 375.25 874.09
  Q 422.83 893.58 473.19 899.06
  Q 510.06 903.07 548.56 899.91
  Q 558.04 899.14 568.37 897.46
  Q 586.21 894.58 600.41 891.16
  C 717.77 862.94 819.81 779.97 866.66 667.75"
/>
<path stroke="#73828a" vector-effect="non-scaling-stroke" d="
  M 466.34 231.31
  Q 457.53 232.96 451.69 239.68
  Q 451.41 240.00 450.72 240.12"
/>
<path stroke="#8a9499" vector-effect="non-scaling-stroke" d="
  M 450.72 240.12
  Q 449.62 239.75 449.15 239.37
  C 438.35 230.61 426.61 224.95 412.52 223.78
  Q 385.30 221.52 364.45 239.69
  Q 353.46 249.26 347.38 262.16
  Q 341.33 275.00 341.58 286.99"
/>
<path stroke="#73828a" vector-effect="non-scaling-stroke" d="
  M 341.58 286.99
  Q 340.37 312.76 357.83 329.67
  Q 365.85 337.44 376.49 341.13
  C 388.10 345.14 401.90 344.12 411.11 335.62
  A 0.81 0.81 0.0 0 1 412.47 336.21
  L 412.84 365.23
  A 0.20 0.19 -13.4 0 0 413.13 365.40
  L 426.00 359.17"
/>
<path stroke="#8a9499" vector-effect="non-scaling-stroke" d="
  M 426.00 359.17
  C 450.73 348.68 478.67 343.46 505.25 342.77
  Q 523.41 342.30 537.75 343.49
  Q 572.09 346.35 603.99 359.55"
/>
<path stroke="#73828a" vector-effect="non-scaling-stroke" d="
  M 603.99 359.55
  L 616.55 365.49
  A 0.52 0.52 0.0 0 0 617.29 365.02
  L 617.12 337.49
  A 0.54 0.54 0.0 0 1 617.99 337.06
  C 624.01 341.59 631.41 343.72 638.87 343.46
  Q 660.76 342.67 675.10 326.08
  Q 689.40 309.53 687.99 286.95"
/>
<path stroke="#8a9499" vector-effect="non-scaling-stroke" d="
  M 687.99 286.95
  C 687.36 266.75 675.29 247.64 659.66 236.16
  C 641.92 223.12 619.42 219.96 598.89 227.90
  Q 585.51 233.08 576.86 243.80
  C 573.84 247.53 572.08 252.15 568.88 255.85
  C 565.42 259.85 559.46 259.95 556.25 255.57
  C 551.15 248.60 558.68 238.50 560.06 231.16
  Q 562.53 218.01 552.35 207.82
  C 537.10 192.57 513.59 189.67 493.95 196.87
  C 485.34 200.03 477.74 205.69 472.47 213.24
  Q 466.97 221.12 466.34 231.31"
/>
<path stroke="#e5ecef" vector-effect="non-scaling-stroke" d="
  M 687.99 286.95
  Q 683.07 287.36 678.91 285.43
  C 676.50 284.31 675.09 282.14 673.30 280.27
  Q 672.29 279.21 672.12 280.66
  Q 669.15 305.92 646.35 316.02
  Q 637.66 319.87 628.47 319.89
  C 618.35 319.91 609.62 317.73 601.30 311.49
  Q 599.82 310.38 600.14 312.19
  C 601.09 317.60 602.60 322.78 603.16 328.35
  Q 604.73 343.94 603.99 359.55"
/>
<path stroke="#e5ecef" vector-effect="non-scaling-stroke" d="
  M 426.00 359.17
  Q 424.25 344.04 424.26 336.00
  Q 424.27 321.36 427.80 307.31
  A 1.43 1.42 22.0 0 0 427.12 305.73
  L 421.71 302.62
  A 2.64 2.64 0.0 0 0 418.63 302.95
  C 416.85 304.54 415.20 306.07 413.00 307.13
  C 401.22 312.84 388.36 314.01 375.50 311.58
  Q 354.21 307.55 341.58 286.99"
/>
<path stroke="#e5ecef" vector-effect="non-scaling-stroke" d="
  M 450.72 240.12
  Q 450.86 240.28 450.93 240.60
  A 1.48 1.44 -79.3 0 0 451.54 241.52
  C 458.07 245.92 463.10 252.54 467.86 258.86
  A 0.60 0.60 0.0 0 0 468.92 258.65
  C 469.88 254.99 470.12 252.06 469.02 248.19
  Q 466.70 240.00 466.34 231.31"
/>
<path stroke="#73828a" vector-effect="non-scaling-stroke" d="
  M 425.01 386.91
  L 413.20 393.98
  Q 412.60 394.33 412.58 395.03
  C 412.31 402.74 413.21 411.00 412.50 418.67
  Q 412.45 419.14 412.85 418.90
  L 425.16 411.34"
/>
<path stroke="#8a9499" vector-effect="non-scaling-stroke" d="
  M 425.16 411.34
  C 457.62 393.01 497.17 386.59 534.00 390.11
  Q 571.04 393.66 603.74 411.06"
/>
<path stroke="#73828a" vector-effect="non-scaling-stroke" d="
  M 603.74 411.06
  L 616.41 419.14
  A 0.44 0.43 16.5 0 0 617.08 418.78
  L 617.05 395.98
  A 1.47 1.47 0.0 0 0 616.30 394.70
  L 605.78 388.77"
/>
<path stroke="#8a9499" vector-effect="non-scaling-stroke" d="
  M 605.78 388.77
  Q 572.18 372.35 537.01 369.22
  C 498.09 365.75 460.68 370.80 425.01 386.91"
/>
<path stroke="#e5ecef" vector-effect="non-scaling-stroke" d="
  M 605.78 388.77
  Q 605.79 399.99 603.74 411.06"
/>
<path stroke="#e5ecef" vector-effect="non-scaling-stroke" d="
  M 425.16 411.34
  C 425.08 409.93 426.05 409.27 426.25 408.22
  C 426.46 407.09 426.02 405.98 425.90 404.86
  Q 425.18 398.00 424.12 391.10
  Q 423.96 390.05 424.34 388.97
  Q 424.69 387.97 425.01 386.91"
/>
<path stroke="#73828a" vector-effect="non-scaling-stroke" d="
  M 401.59 477.96
  Q 400.85 486.38 401.24 489.77
  Q 404.52 518.68 424.09 539.94
  C 441.47 558.81 465.98 571.80 491.93 575.58
  Q 519.49 579.59 544.18 574.47
  C 590.13 564.94 630.83 527.87 627.27 477.57"
/>
<path stroke="#8a9499" vector-effect="non-scaling-stroke" d="
  M 627.27 477.57
  C 625.53 455.91 613.38 440.19 595.13 428.98
  C 566.51 411.40 533.22 406.29 499.85 408.54
  Q 475.02 410.23 451.27 419.58
  Q 436.35 425.45 424.35 435.33
  Q 404.13 451.98 401.59 477.96"
/>
<path stroke="#e5ecef" vector-effect="non-scaling-stroke" d="
  M 627.27 477.57
  L 626.59 486.29
  Q 626.56 486.66 626.23 486.82
  Q 626.09 486.88 625.98 486.98
  Q 625.71 487.24 625.60 487.59
  Q 621.77 499.89 614.94 509.45
  Q 599.64 530.88 575.88 543.20
  Q 558.51 552.22 536.64 555.55
  Q 502.62 560.74 470.80 550.40
  C 441.18 540.77 415.62 518.95 404.30 489.76
  Q 402.30 484.60 401.59 477.96"
/>
<path stroke="#73828a" vector-effect="non-scaling-stroke" d="
  M 278.09 604.39
  Q 266.46 645.63 274.69 687.71
  Q 278.29 706.12 286.55 722.79
  Q 294.15 738.16 305.11 748.71
  Q 322.13 765.12 345.49 760.02
  Q 358.77 757.13 369.28 746.30"
/>
<path stroke="#8a9499" vector-effect="non-scaling-stroke" d="
  M 369.28 746.30
  C 384.68 731.41 386.97 709.99 376.70 691.68
  C 362.74 666.77 348.03 637.45 362.68 609.62
  C 366.36 602.61 372.96 595.46 381.51 598.90
  C 386.10 600.75 388.96 605.62 388.14 610.47
  C 387.70 613.10 386.31 615.57 385.18 617.99
  C 381.87 625.09 381.99 632.76 384.16 640.53
  Q 387.38 652.12 392.69 662.11
  Q 399.99 675.86 402.32 680.65
  C 408.29 692.89 411.72 708.20 410.01 721.72
  C 407.20 744.06 395.25 762.53 375.87 774.63"
/>
<path stroke="#73828a" vector-effect="non-scaling-stroke" d="
  M 375.87 774.63
  Q 365.66 780.32 353.52 783.51
  Q 350.36 784.34 347.32 784.16
  A 0.22 0.22 0.0 0 0 347.15 784.54
  Q 353.05 790.51 362.55 797.52
  Q 402.31 826.89 449.90 839.00
  Q 509.36 854.14 568.95 841.72
  Q 623.66 830.31 668.91 796.17
  Q 675.84 790.93 682.31 784.94
  A 0.28 0.28 0.0 0 0 682.15 784.46
  Q 666.28 782.85 652.89 774.85"
/>
<path stroke="#8a9499" vector-effect="non-scaling-stroke" d="
  M 652.89 774.85
  Q 633.11 762.34 624.55 742.67
  Q 614.28 719.07 622.42 691.73
  C 625.46 681.53 630.87 672.30 635.88 662.88
  C 641.69 651.95 649.63 633.49 645.03 620.96
  Q 643.87 617.82 642.31 614.46
  C 639.47 608.35 641.13 601.95 647.35 599.08
  C 653.73 596.13 659.58 599.58 663.33 604.69
  C 680.09 627.55 671.66 656.09 659.05 678.80
  Q 653.84 688.16 649.96 696.58
  Q 644.66 708.06 646.44 720.99
  Q 648.53 736.22 660.29 747.03"
/>
<path stroke="#73828a" vector-effect="non-scaling-stroke" d="
  M 660.29 747.03
  C 677.59 763.87 704.15 767.07 722.70 750.19
  C 733.94 739.96 741.97 726.53 747.73 711.75
  C 760.34 679.39 760.78 641.83 752.13 609.48"
/>
<path stroke="#8a9499" vector-effect="non-scaling-stroke" d="
  M 752.13 609.48
  C 742.94 567.70 719.41 529.75 687.69 501.31
  Q 671.66 486.95 655.99 477.24
  Q 655.36 476.85 655.44 477.59
  Q 655.80 480.73 656.02 483.99
  C 657.60 508.01 648.37 532.43 634.45 551.68
  C 612.77 581.67 580.95 600.00 544.69 606.52
  C 508.79 612.98 471.77 608.50 439.65 591.05
  Q 406.79 573.19 387.96 541.29
  Q 370.19 511.20 373.76 477.27
  A 0.34 0.34 0.0 0 0 373.25 476.95
  C 331.24 502.51 297.84 543.11 282.27 589.74
  Q 280.14 596.12 278.09 604.39"
/>
<path stroke="#e5ecef" vector-effect="non-scaling-stroke" d="
  M 752.13 609.48
  L 750.49 610.51
  Q 750.10 610.76 750.09 611.22
  Q 749.18 634.59 748.39 642.61
  Q 747.38 652.93 744.97 664.85
  Q 742.12 678.89 736.38 692.93
  C 729.37 710.12 719.14 728.27 703.44 739.05
  Q 689.99 748.28 673.57 747.96
  Q 672.57 747.94 666.98 747.19
  Q 663.61 746.74 660.29 747.03"
/>
<path stroke="#e5ecef" vector-effect="non-scaling-stroke" d="
  M 652.89 774.85
  Q 652.24 775.70 650.88 776.42
  Q 649.81 776.99 648.79 777.86
  Q 647.17 779.24 646.03 780.10
  Q 620.97 798.96 589.31 808.97
  Q 566.84 816.08 551.29 818.71
  Q 515.76 824.73 477.22 818.47
  Q 444.84 813.20 413.61 798.80
  C 402.59 793.72 391.57 787.36 382.19 779.63
  Q 379.15 777.13 375.87 774.63"
/>
<path stroke="#e5ecef" vector-effect="non-scaling-stroke" d="
  M 369.28 746.30
  Q 366.38 745.20 362.50 746.61
  Q 359.05 747.85 352.64 747.41
  Q 340.03 746.53 329.46 740.09
  C 312.39 729.68 301.09 711.89 293.65 693.62
  C 291.58 688.53 289.39 683.36 287.77 678.05
  Q 283.71 664.73 282.12 653.78
  Q 279.48 635.49 279.42 614.75
  Q 279.40 609.49 278.09 604.39"
/>
<path stroke="#8a9499" vector-effect="non-scaling-stroke" d="
  M 519.47 312.24
  C 509.29 312.83 498.28 310.93 490.18 304.91
  C 486.48 302.16 481.90 301.12 478.03 304.14
  Q 472.79 308.23 474.87 314.95
  C 477.18 322.37 490.53 327.79 497.32 329.60
  Q 519.19 335.45 540.12 327.81
  C 547.03 325.29 560.31 318.25 556.12 308.44
  C 553.96 303.35 547.48 299.97 542.67 303.86
  Q 533.29 311.45 519.47 312.24"
/>
<path stroke="#8a9499" vector-effect="non-scaling-stroke" d="
  M 461.4873 478.4900
  A 14.01 13.75 109.7 0 0 479.1552 469.9351
  A 14.01 13.75 109.7 0 0 470.9327 452.1100
  A 14.01 13.75 109.7 0 0 453.2648 460.6649
  A 14.01 13.75 109.7 0 0 461.4873 478.4900"
/>
<path stroke="#8a9499" vector-effect="non-scaling-stroke" d="
  M 562.7376 479.2469
  A 13.96 13.73 91.2 0 0 576.7570 465.5775
  A 13.96 13.73 91.2 0 0 563.3224 451.3331
  A 13.96 13.73 91.2 0 0 549.3030 465.0025
  A 13.96 13.73 91.2 0 0 562.7376 479.2469"
/>
<path stroke="#8a9499" vector-effect="non-scaling-stroke" d="
  M 493.45 500.11
  C 490.05 497.22 484.85 497.40 481.59 500.27
  C 475.75 505.42 479.28 513.39 484.67 517.66
  Q 501.64 531.10 522.94 527.52
  C 531.52 526.08 542.79 521.21 548.35 513.79
  C 555.76 503.90 544.33 492.52 534.70 501.56
  C 531.93 504.16 529.01 506.62 525.29 507.67
  Q 515.46 510.42 505.51 507.67
  C 500.36 506.25 497.29 503.38 493.45 500.11"
/>
<path stroke="#8a9499" vector-effect="non-scaling-stroke" d="
  M 474.88 652.74
  A 17.19 17.19 0.0 0 0 457.69 635.55
  A 17.19 17.19 0.0 0 0 440.50 652.74
  A 17.19 17.19 0.0 0 0 457.69 669.93
  A 17.19 17.19 0.0 0 0 474.88 652.74"
/>
<path stroke="#8a9499" vector-effect="non-scaling-stroke" d="
  M 474.99 708.60
  A 17.24 17.24 0.0 0 0 457.75 691.36
  A 17.24 17.24 0.0 0 0 440.51 708.60
  A 17.24 17.24 0.0 0 0 457.75 725.84
  A 17.24 17.24 0.0 0 0 474.99 708.60"
/>
</g>
<path fill="#fcfefd" d="
  M 0.00 0.00
  L 1024.00 0.00
  L 1024.00 1024.00
  L 0.00 1024.00
  L 0.00 0.00
  Z
  M 866.66 667.75
  Q 882.75 629.22 890.46 586.24
  Q 905.55 502.06 882.50 420.51
  C 871.34 381.03 853.93 343.20 830.60 309.67
  C 803.34 270.49 770.79 236.83 733.04 210.53
  Q 690.93 181.20 645.75 163.87
  C 595.47 144.59 540.32 135.47 486.82 140.34
  Q 427.94 145.70 373.79 168.13
  C 340.79 181.80 307.83 200.59 279.39 222.79
  C 259.50 238.32 240.47 256.96 225.49 274.55
  Q 209.13 293.76 195.37 314.22
  Q 153.61 376.32 139.48 450.80
  C 128.60 508.13 130.73 566.57 146.56 622.96
  Q 154.01 649.50 164.25 673.10
  Q 181.54 712.95 208.74 748.10
  Q 250.33 801.83 302.19 835.95
  C 325.08 851.01 349.59 863.59 375.25 874.09
  Q 422.83 893.58 473.19 899.06
  Q 510.06 903.07 548.56 899.91
  Q 558.04 899.14 568.37 897.46
  Q 586.21 894.58 600.41 891.16
  C 717.77 862.94 819.81 779.97 866.66 667.75
  Z"
/>
<path fill="#182934" d="
  M 866.66 667.75
  C 819.81 779.97 717.77 862.94 600.41 891.16
  Q 586.21 894.58 568.37 897.46
  Q 558.04 899.14 548.56 899.91
  Q 510.06 903.07 473.19 899.06
  Q 422.83 893.58 375.25 874.09
  C 349.59 863.59 325.08 851.01 302.19 835.95
  Q 250.33 801.83 208.74 748.10
  Q 181.54 712.95 164.25 673.10
  Q 154.01 649.50 146.56 622.96
  C 130.73 566.57 128.60 508.13 139.48 450.80
  Q 153.61 376.32 195.37 314.22
  Q 209.13 293.76 225.49 274.55
  C 240.47 256.96 259.50 238.32 279.39 222.79
  C 307.83 200.59 340.79 181.80 373.79 168.13
  Q 427.94 145.70 486.82 140.34
  C 540.32 135.47 595.47 144.59 645.75 163.87
  Q 690.93 181.20 733.04 210.53
  C 770.79 236.83 803.34 270.49 830.60 309.67
  C 853.93 343.20 871.34 381.03 882.50 420.51
  Q 905.55 502.06 890.46 586.24
  Q 882.75 629.22 866.66 667.75
  Z
  M 466.34 231.31
  Q 457.53 232.96 451.69 239.68
  Q 451.41 240.00 450.72 240.12
  Q 449.62 239.75 449.15 239.37
  C 438.35 230.61 426.61 224.95 412.52 223.78
  Q 385.30 221.52 364.45 239.69
  Q 353.46 249.26 347.38 262.16
  Q 341.33 275.00 341.58 286.99
  Q 340.37 312.76 357.83 329.67
  Q 365.85 337.44 376.49 341.13
  C 388.10 345.14 401.90 344.12 411.11 335.62
  A 0.81 0.81 0.0 0 1 412.47 336.21
  L 412.84 365.23
  A 0.20 0.19 -13.4 0 0 413.13 365.40
  L 426.00 359.17
  C 450.73 348.68 478.67 343.46 505.25 342.77
  Q 523.41 342.30 537.75 343.49
  Q 572.09 346.35 603.99 359.55
  L 616.55 365.49
  A 0.52 0.52 0.0 0 0 617.29 365.02
  L 617.12 337.49
  A 0.54 0.54 0.0 0 1 617.99 337.06
  C 624.01 341.59 631.41 343.72 638.87 343.46
  Q 660.76 342.67 675.10 326.08
  Q 689.40 309.53 687.99 286.95
  C 687.36 266.75 675.29 247.64 659.66 236.16
  C 641.92 223.12 619.42 219.96 598.89 227.90
  Q 585.51 233.08 576.86 243.80
  C 573.84 247.53 572.08 252.15 568.88 255.85
  C 565.42 259.85 559.46 259.95 556.25 255.57
  C 551.15 248.60 558.68 238.50 560.06 231.16
  Q 562.53 218.01 552.35 207.82
  C 537.10 192.57 513.59 189.67 493.95 196.87
  C 485.34 200.03 477.74 205.69 472.47 213.24
  Q 466.97 221.12 466.34 231.31
  Z
  M 425.01 386.91
  L 413.20 393.98
  Q 412.60 394.33 412.58 395.03
  C 412.31 402.74 413.21 411.00 412.50 418.67
  Q 412.45 419.14 412.85 418.90
  L 425.16 411.34
  C 457.62 393.01 497.17 386.59 534.00 390.11
  Q 571.04 393.66 603.74 411.06
  L 616.41 419.14
  A 0.44 0.43 16.5 0 0 617.08 418.78
  L 617.05 395.98
  A 1.47 1.47 0.0 0 0 616.30 394.70
  L 605.78 388.77
  Q 572.18 372.35 537.01 369.22
  C 498.09 365.75 460.68 370.80 425.01 386.91
  Z
  M 401.59 477.96
  Q 400.85 486.38 401.24 489.77
  Q 404.52 518.68 424.09 539.94
  C 441.47 558.81 465.98 571.80 491.93 575.58
  Q 519.49 579.59 544.18 574.47
  C 590.13 564.94 630.83 527.87 627.27 477.57
  C 625.53 455.91 613.38 440.19 595.13 428.98
  C 566.51 411.40 533.22 406.29 499.85 408.54
  Q 475.02 410.23 451.27 419.58
  Q 436.35 425.45 424.35 435.33
  Q 404.13 451.98 401.59 477.96
  Z
  M 278.09 604.39
  Q 266.46 645.63 274.69 687.71
  Q 278.29 706.12 286.55 722.79
  Q 294.15 738.16 305.11 748.71
  Q 322.13 765.12 345.49 760.02
  Q 358.77 757.13 369.28 746.30
  C 384.68 731.41 386.97 709.99 376.70 691.68
  C 362.74 666.77 348.03 637.45 362.68 609.62
  C 366.36 602.61 372.96 595.46 381.51 598.90
  C 386.10 600.75 388.96 605.62 388.14 610.47
  C 387.70 613.10 386.31 615.57 385.18 617.99
  C 381.87 625.09 381.99 632.76 384.16 640.53
  Q 387.38 652.12 392.69 662.11
  Q 399.99 675.86 402.32 680.65
  C 408.29 692.89 411.72 708.20 410.01 721.72
  C 407.20 744.06 395.25 762.53 375.87 774.63
  Q 365.66 780.32 353.52 783.51
  Q 350.36 784.34 347.32 784.16
  A 0.22 0.22 0.0 0 0 347.15 784.54
  Q 353.05 790.51 362.55 797.52
  Q 402.31 826.89 449.90 839.00
  Q 509.36 854.14 568.95 841.72
  Q 623.66 830.31 668.91 796.17
  Q 675.84 790.93 682.31 784.94
  A 0.28 0.28 0.0 0 0 682.15 784.46
  Q 666.28 782.85 652.89 774.85
  Q 633.11 762.34 624.55 742.67
  Q 614.28 719.07 622.42 691.73
  C 625.46 681.53 630.87 672.30 635.88 662.88
  C 641.69 651.95 649.63 633.49 645.03 620.96
  Q 643.87 617.82 642.31 614.46
  C 639.47 608.35 641.13 601.95 647.35 599.08
  C 653.73 596.13 659.58 599.58 663.33 604.69
  C 680.09 627.55 671.66 656.09 659.05 678.80
  Q 653.84 688.16 649.96 696.58
  Q 644.66 708.06 646.44 720.99
  Q 648.53 736.22 660.29 747.03
  C 677.59 763.87 704.15 767.07 722.70 750.19
  C 733.94 739.96 741.97 726.53 747.73 711.75
  C 760.34 679.39 760.78 641.83 752.13 609.48
  C 742.94 567.70 719.41 529.75 687.69 501.31
  Q 671.66 486.95 655.99 477.24
  Q 655.36 476.85 655.44 477.59
  Q 655.80 480.73 656.02 483.99
  C 657.60 508.01 648.37 532.43 634.45 551.68
  C 612.77 581.67 580.95 600.00 544.69 606.52
  C 508.79 612.98 471.77 608.50 439.65 591.05
  Q 406.79 573.19 387.96 541.29
  Q 370.19 511.20 373.76 477.27
  A 0.34 0.34 0.0 0 0 373.25 476.95
  C 331.24 502.51 297.84 543.11 282.27 589.74
  Q 280.14 596.12 278.09 604.39
  Z"
/>
<path fill="#fcfefd" d="
  M 687.99 286.95
  Q 683.07 287.36 678.91 285.43
  C 676.50 284.31 675.09 282.14 673.30 280.27
  Q 672.29 279.21 672.12 280.66
  Q 669.15 305.92 646.35 316.02
  Q 637.66 319.87 628.47 319.89
  C 618.35 319.91 609.62 317.73 601.30 311.49
  Q 599.82 310.38 600.14 312.19
  C 601.09 317.60 602.60 322.78 603.16 328.35
  Q 604.73 343.94 603.99 359.55
  Q 572.09 346.35 537.75 343.49
  Q 523.41 342.30 505.25 342.77
  C 478.67 343.46 450.73 348.68 426.00 359.17
  Q 424.25 344.04 424.26 336.00
  Q 424.27 321.36 427.80 307.31
  A 1.43 1.42 22.0 0 0 427.12 305.73
  L 421.71 302.62
  A 2.64 2.64 0.0 0 0 418.63 302.95
  C 416.85 304.54 415.20 306.07 413.00 307.13
  C 401.22 312.84 388.36 314.01 375.50 311.58
  Q 354.21 307.55 341.58 286.99
  Q 341.33 275.00 347.38 262.16
  Q 353.46 249.26 364.45 239.69
  Q 385.30 221.52 412.52 223.78
  C 426.61 224.95 438.35 230.61 449.15 239.37
  Q 449.62 239.75 450.72 240.12
  Q 450.86 240.28 450.93 240.60
  A 1.48 1.44 -79.3 0 0 451.54 241.52
  C 458.07 245.92 463.10 252.54 467.86 258.86
  A 0.60 0.60 0.0 0 0 468.92 258.65
  C 469.88 254.99 470.12 252.06 469.02 248.19
  Q 466.70 240.00 466.34 231.31
  Q 466.97 221.12 472.47 213.24
  C 477.74 205.69 485.34 200.03 493.95 196.87
  C 513.59 189.67 537.10 192.57 552.35 207.82
  Q 562.53 218.01 560.06 231.16
  C 558.68 238.50 551.15 248.60 556.25 255.57
  C 559.46 259.95 565.42 259.85 568.88 255.85
  C 572.08 252.15 573.84 247.53 576.86 243.80
  Q 585.51 233.08 598.89 227.90
  C 619.42 219.96 641.92 223.12 659.66 236.16
  C 675.29 247.64 687.36 266.75 687.99 286.95
  Z
  M 519.47 312.24
  C 509.29 312.83 498.28 310.93 490.18 304.91
  C 486.48 302.16 481.90 301.12 478.03 304.14
  Q 472.79 308.23 474.87 314.95
  C 477.18 322.37 490.53 327.79 497.32 329.60
  Q 519.19 335.45 540.12 327.81
  C 547.03 325.29 560.31 318.25 556.12 308.44
  C 553.96 303.35 547.48 299.97 542.67 303.86
  Q 533.29 311.45 519.47 312.24
  Z"
/>
<path fill="#cddae0" d="
  M 466.34 231.31
  Q 466.70 240.00 469.02 248.19
  C 470.12 252.06 469.88 254.99 468.92 258.65
  A 0.60 0.60 0.0 0 1 467.86 258.86
  C 463.10 252.54 458.07 245.92 451.54 241.52
  A 1.48 1.44 -79.3 0 1 450.93 240.60
  Q 450.86 240.28 450.72 240.12
  Q 451.41 240.00 451.69 239.68
  Q 457.53 232.96 466.34 231.31
  Z"
/>
<path fill="#cddae0" d="
  M 687.99 286.95
  Q 689.40 309.53 675.10 326.08
  Q 660.76 342.67 638.87 343.46
  C 631.41 343.72 624.01 341.59 617.99 337.06
  A 0.54 0.54 0.0 0 0 617.12 337.49
  L 617.29 365.02
  A 0.52 0.52 0.0 0 1 616.55 365.49
  L 603.99 359.55
  Q 604.73 343.94 603.16 328.35
  C 602.60 322.78 601.09 317.60 600.14 312.19
  Q 599.82 310.38 601.30 311.49
  C 609.62 317.73 618.35 319.91 628.47 319.89
  Q 637.66 319.87 646.35 316.02
  Q 669.15 305.92 672.12 280.66
  Q 672.29 279.21 673.30 280.27
  C 675.09 282.14 676.50 284.31 678.91 285.43
  Q 683.07 287.36 687.99 286.95
  Z"
/>
<path fill="#cddae0" d="
  M 341.58 286.99
  Q 354.21 307.55 375.50 311.58
  C 388.36 314.01 401.22 312.84 413.00 307.13
  C 415.20 306.07 416.85 304.54 418.63 302.95
  A 2.64 2.64 0.0 0 1 421.71 302.62
  L 427.12 305.73
  A 1.43 1.42 22.0 0 1 427.80 307.31
  Q 424.27 321.36 424.26 336.00
  Q 424.25 344.04 426.00 359.17
  L 413.13 365.40
  A 0.20 0.19 -13.4 0 1 412.84 365.23
  L 412.47 336.21
  A 0.81 0.81 0.0 0 0 411.11 335.62
  C 401.90 344.12 388.10 345.14 376.49 341.13
  Q 365.85 337.44 357.83 329.67
  Q 340.37 312.76 341.58 286.99
  Z"
/>
<path fill="#182934" d="
  M 490.18 304.91
  C 498.28 310.93 509.29 312.83 519.47 312.24
  Q 533.29 311.45 542.67 303.86
  C 547.48 299.97 553.96 303.35 556.12 308.44
  C 560.31 318.25 547.03 325.29 540.12 327.81
  Q 519.19 335.45 497.32 329.60
  C 490.53 327.79 477.18 322.37 474.87 314.95
  Q 472.79 308.23 478.03 304.14
  C 481.90 301.12 486.48 302.16 490.18 304.91
  Z"
/>
<path fill="#fcfefd" d="
  M 605.78 388.77
  Q 605.79 399.99 603.74 411.06
  Q 571.04 393.66 534.00 390.11
  C 497.17 386.59 457.62 393.01 425.16 411.34
  C 425.08 409.93 426.05 409.27 426.25 408.22
  C 426.46 407.09 426.02 405.98 425.90 404.86
  Q 425.18 398.00 424.12 391.10
  Q 423.96 390.05 424.34 388.97
  Q 424.69 387.97 425.01 386.91
  C 460.68 370.80 498.09 365.75 537.01 369.22
  Q 572.18 372.35 605.78 388.77
  Z"
/>
<path fill="#cddae0" d="
  M 425.01 386.91
  Q 424.69 387.97 424.34 388.97
  Q 423.96 390.05 424.12 391.10
  Q 425.18 398.00 425.90 404.86
  C 426.02 405.98 426.46 407.09 426.25 408.22
  C 426.05 409.27 425.08 409.93 425.16 411.34
  L 412.85 418.90
  Q 412.45 419.14 412.50 418.67
  C 413.21 411.00 412.31 402.74 412.58 395.03
  Q 412.60 394.33 413.20 393.98
  L 425.01 386.91
  Z"
/>
<path fill="#cddae0" d="
  M 605.78 388.77
  L 616.30 394.70
  A 1.47 1.47 0.0 0 1 617.05 395.98
  L 617.08 418.78
  A 0.44 0.43 16.5 0 1 616.41 419.14
  L 603.74 411.06
  Q 605.79 399.99 605.78 388.77
  Z"
/>
<path fill="#fcfefd" d="
  M 627.27 477.57
  L 626.59 486.29
  Q 626.56 486.66 626.23 486.82
  Q 626.09 486.88 625.98 486.98
  Q 625.71 487.24 625.60 487.59
  Q 621.77 499.89 614.94 509.45
  Q 599.64 530.88 575.88 543.20
  Q 558.51 552.22 536.64 555.55
  Q 502.62 560.74 470.80 550.40
  C 441.18 540.77 415.62 518.95 404.30 489.76
  Q 402.30 484.60 401.59 477.96
  Q 404.13 451.98 424.35 435.33
  Q 436.35 425.45 451.27 419.58
  Q 475.02 410.23 499.85 408.54
  C 533.22 406.29 566.51 411.40 595.13 428.98
  C 613.38 440.19 625.53 455.91 627.27 477.57
  Z
  M 461.4873 478.4900
  A 14.01 13.75 109.7 0 0 479.1552 469.9351
  A 14.01 13.75 109.7 0 0 470.9327 452.1100
  A 14.01 13.75 109.7 0 0 453.2648 460.6649
  A 14.01 13.75 109.7 0 0 461.4873 478.4900
  Z
  M 562.7376 479.2469
  A 13.96 13.73 91.2 0 0 576.7570 465.5775
  A 13.96 13.73 91.2 0 0 563.3224 451.3331
  A 13.96 13.73 91.2 0 0 549.3030 465.0025
  A 13.96 13.73 91.2 0 0 562.7376 479.2469
  Z
  M 493.45 500.11
  C 490.05 497.22 484.85 497.40 481.59 500.27
  C 475.75 505.42 479.28 513.39 484.67 517.66
  Q 501.64 531.10 522.94 527.52
  C 531.52 526.08 542.79 521.21 548.35 513.79
  C 555.76 503.90 544.33 492.52 534.70 501.56
  C 531.93 504.16 529.01 506.62 525.29 507.67
  Q 515.46 510.42 505.51 507.67
  C 500.36 506.25 497.29 503.38 493.45 500.11
  Z"
/>
<ellipse fill="#182934" cx="0.00" cy="0.00" transform="translate(466.21,465.30) rotate(109.7)" rx="14.01" ry="13.75"/>
<ellipse fill="#182934" cx="0.00" cy="0.00" transform="translate(563.03,465.29) rotate(91.2)" rx="13.96" ry="13.73"/>
<path fill="#fcfefd" d="
  M 752.13 609.48
  L 750.49 610.51
  Q 750.10 610.76 750.09 611.22
  Q 749.18 634.59 748.39 642.61
  Q 747.38 652.93 744.97 664.85
  Q 742.12 678.89 736.38 692.93
  C 729.37 710.12 719.14 728.27 703.44 739.05
  Q 689.99 748.28 673.57 747.96
  Q 672.57 747.94 666.98 747.19
  Q 663.61 746.74 660.29 747.03
  Q 648.53 736.22 646.44 720.99
  Q 644.66 708.06 649.96 696.58
  Q 653.84 688.16 659.05 678.80
  C 671.66 656.09 680.09 627.55 663.33 604.69
  C 659.58 599.58 653.73 596.13 647.35 599.08
  C 641.13 601.95 639.47 608.35 642.31 614.46
  Q 643.87 617.82 645.03 620.96
  C 649.63 633.49 641.69 651.95 635.88 662.88
  C 630.87 672.30 625.46 681.53 622.42 691.73
  Q 614.28 719.07 624.55 742.67
  Q 633.11 762.34 652.89 774.85
  Q 652.24 775.70 650.88 776.42
  Q 649.81 776.99 648.79 777.86
  Q 647.17 779.24 646.03 780.10
  Q 620.97 798.96 589.31 808.97
  Q 566.84 816.08 551.29 818.71
  Q 515.76 824.73 477.22 818.47
  Q 444.84 813.20 413.61 798.80
  C 402.59 793.72 391.57 787.36 382.19 779.63
  Q 379.15 777.13 375.87 774.63
  C 395.25 762.53 407.20 744.06 410.01 721.72
  C 411.72 708.20 408.29 692.89 402.32 680.65
  Q 399.99 675.86 392.69 662.11
  Q 387.38 652.12 384.16 640.53
  C 381.99 632.76 381.87 625.09 385.18 617.99
  C 386.31 615.57 387.70 613.10 388.14 610.47
  C 388.96 605.62 386.10 600.75 381.51 598.90
  C 372.96 595.46 366.36 602.61 362.68 609.62
  C 348.03 637.45 362.74 666.77 376.70 691.68
  C 386.97 709.99 384.68 731.41 369.28 746.30
  Q 366.38 745.20 362.50 746.61
  Q 359.05 747.85 352.64 747.41
  Q 340.03 746.53 329.46 740.09
  C 312.39 729.68 301.09 711.89 293.65 693.62
  C 291.58 688.53 289.39 683.36 287.77 678.05
  Q 283.71 664.73 282.12 653.78
  Q 279.48 635.49 279.42 614.75
  Q 279.40 609.49 278.09 604.39
  Q 280.14 596.12 282.27 589.74
  C 297.84 543.11 331.24 502.51 373.25 476.95
  A 0.34 0.34 0.0 0 1 373.76 477.27
  Q 370.19 511.20 387.96 541.29
  Q 406.79 573.19 439.65 591.05
  C 471.77 608.50 508.79 612.98 544.69 606.52
  C 580.95 600.00 612.77 581.67 634.45 551.68
  C 648.37 532.43 657.60 508.01 656.02 483.99
  Q 655.80 480.73 655.44 477.59
  Q 655.36 476.85 655.99 477.24
  Q 671.66 486.95 687.69 501.31
  C 719.41 529.75 742.94 567.70 752.13 609.48
  Z
  M 474.88 652.74
  A 17.19 17.19 0.0 0 0 457.69 635.55
  A 17.19 17.19 0.0 0 0 440.50 652.74
  A 17.19 17.19 0.0 0 0 457.69 669.93
  A 17.19 17.19 0.0 0 0 474.88 652.74
  Z
  M 474.99 708.60
  A 17.24 17.24 0.0 0 0 457.75 691.36
  A 17.24 17.24 0.0 0 0 440.51 708.60
  A 17.24 17.24 0.0 0 0 457.75 725.84
  A 17.24 17.24 0.0 0 0 474.99 708.60
  Z"
/>
<path fill="#cddae0" d="
  M 627.27 477.57
  C 630.83 527.87 590.13 564.94 544.18 574.47
  Q 519.49 579.59 491.93 575.58
  C 465.98 571.80 441.47 558.81 424.09 539.94
  Q 404.52 518.68 401.24 489.77
  Q 400.85 486.38 401.59 477.96
  Q 402.30 484.60 404.30 489.76
  C 415.62 518.95 441.18 540.77 470.80 550.40
  Q 502.62 560.74 536.64 555.55
  Q 558.51 552.22 575.88 543.20
  Q 599.64 530.88 614.94 509.45
  Q 621.77 499.89 625.60 487.59
  Q 625.71 487.24 625.98 486.98
  Q 626.09 486.88 626.23 486.82
  Q 626.56 486.66 626.59 486.29
  L 627.27 477.57
  Z"
/>
<path fill="#182934" d="
  M 493.45 500.11
  C 497.29 503.38 500.36 506.25 505.51 507.67
  Q 515.46 510.42 525.29 507.67
  C 529.01 506.62 531.93 504.16 534.70 501.56
  C 544.33 492.52 555.76 503.90 548.35 513.79
  C 542.79 521.21 531.52 526.08 522.94 527.52
  Q 501.64 531.10 484.67 517.66
  C 479.28 513.39 475.75 505.42 481.59 500.27
  C 484.85 497.40 490.05 497.22 493.45 500.11
  Z"
/>
<path fill="#cddae0" d="
  M 278.09 604.39
  Q 279.40 609.49 279.42 614.75
  Q 279.48 635.49 282.12 653.78
  Q 283.71 664.73 287.77 678.05
  C 289.39 683.36 291.58 688.53 293.65 693.62
  C 301.09 711.89 312.39 729.68 329.46 740.09
  Q 340.03 746.53 352.64 747.41
  Q 359.05 747.85 362.50 746.61
  Q 366.38 745.20 369.28 746.30
  Q 358.77 757.13 345.49 760.02
  Q 322.13 765.12 305.11 748.71
  Q 294.15 738.16 286.55 722.79
  Q 278.29 706.12 274.69 687.71
  Q 266.46 645.63 278.09 604.39
  Z"
/>
<path fill="#cddae0" d="
  M 752.13 609.48
  C 760.78 641.83 760.34 679.39 747.73 711.75
  C 741.97 726.53 733.94 739.96 722.70 750.19
  C 704.15 767.07 677.59 763.87 660.29 747.03
  Q 663.61 746.74 666.98 747.19
  Q 672.57 747.94 673.57 747.96
  Q 689.99 748.28 703.44 739.05
  C 719.14 728.27 729.37 710.12 736.38 692.93
  Q 742.12 678.89 744.97 664.85
  Q 747.38 652.93 748.39 642.61
  Q 749.18 634.59 750.09 611.22
  Q 750.10 610.76 750.49 610.51
  L 752.13 609.48
  Z"
/>
<circle fill="#182934" cx="457.69" cy="652.74" r="17.19"/>
<circle fill="#182934" cx="457.75" cy="708.60" r="17.24"/>
<path fill="#cddae0" d="
  M 375.87 774.63
  Q 379.15 777.13 382.19 779.63
  C 391.57 787.36 402.59 793.72 413.61 798.80
  Q 444.84 813.20 477.22 818.47
  Q 515.76 824.73 551.29 818.71
  Q 566.84 816.08 589.31 808.97
  Q 620.97 798.96 646.03 780.10
  Q 647.17 779.24 648.79 777.86
  Q 649.81 776.99 650.88 776.42
  Q 652.24 775.70 652.89 774.85
  Q 666.28 782.85 682.15 784.46
  A 0.28 0.28 0.0 0 1 682.31 784.94
  Q 675.84 790.93 668.91 796.17
  Q 623.66 830.31 568.95 841.72
  Q 509.36 854.14 449.90 839.00
  Q 402.31 826.89 362.55 797.52
  Q 353.05 790.51 347.15 784.54
  A 0.22 0.22 0.0 0 1 347.32 784.16
  Q 350.36 784.34 353.52 783.51
  Q 365.66 780.32 375.87 774.63
  Z"
/>
</svg>
